<?xml version="1.0" encoding="UTF-8" standalone="no"?>
<svg
   viewBox="0 0 650 512"
   width="65.0"
   height="51.2"
   version="1.1"
   id="svg4"
   sodipodi:docname="logo.svg"
   inkscape:version="1.1 (c4e8f9ed74, 2021-05-24)"
   xmlns:inkscape="http://www.inkscape.org/namespaces/inkscape"
   xmlns:sodipodi="http://sodipodi.sourceforge.net/DTD/sodipodi-0.dtd"
   xmlns="http://www.w3.org/2000/svg"
   xmlns:svg="http://www.w3.org/2000/svg">
  <defs
     id="defs8" />
  <sodipodi:namedview
     id="namedview6"
     pagecolor="#ffffff"
     bordercolor="#666666"
     borderopacity="1.0"
     inkscape:pageshadow="2"
     inkscape:pageopacity="0.0"
     inkscape:pagecheckerboard="0"
     showgrid="false"
     inkscape:zoom="1"
     inkscape:cx="32.5"
     inkscape:cy="25.5"
     inkscape:window-width="1894"
     inkscape:window-height="824"
     inkscape:window-x="12"
     inkscape:window-y="218"
     inkscape:window-maximized="1"
     inkscape:current-layer="svg4" />
  <path
     d="M306.302 20.313c-34.326.367-68.574 6.949-102.436 18.687l-38 157.406h69.343c-15.01 36.837-4.96 78.375 10.687 106.875l18.656-53.092 20.688 57.75 21.344-53.188 21.343 53.875 21.345-58.438 18.656 53.75c17.64-32.01 20.863-75.52 10.69-107.53h68.686L409.272 39c-34.235-13.207-68.643-19.055-102.97-18.688zm-92.03 89.968c30.03 6.412 54.695 19.975 68.468 48.064l-80.438 7.22 11.97-55.283zm184.968 0l11.97 55.282-80.47-7.218c15.057-26.116 39.92-39.524 68.5-48.063zm-92.53 64.69l7.436 9.81 24.875 32.845-14.906 11.28-17.408-23-17.406 23-14.906-11.28 24.875-32.844 7.438-9.81zm-61.345 219c-18.96 23.825-18.032 45.48-18.282 71.467 55.972 21.582 108.007 19.906 160.406 0 2.66-28.217-2.896-51.03-19.688-70.843l-17 54.344-23.375-51.875-20.842 59.906-20.844-59.25-24.78 51.217-15.595-54.968zM31.068 324.599c-3.3 2.943-6.177 7.342-6.334 12.586s2.451 9.808 5.568 12.943c3.125 3.129 6.899 5.371 11.201 7.24 8.603 3.739 19.446 5.917 31.462 6.278 5.259.158 10.288-.059 15.044-.61l.527-18.271a83.99 83.99 0 0 1-15.031.886c-10.072-.295-19.116-2.299-24.814-4.791-2.556-1.11-4.261-2.278-5.212-3.113.992-.77 2.772-1.841 5.39-2.795 5.837-2.131 14.985-3.59 25.049-3.288 5.407.155 10.495.817 14.951 1.771l.534-18.264c-4.708-.827-9.701-1.345-14.945-1.502-12.015-.36-22.962 1.158-31.774 4.374-4.399 1.615-8.314 3.613-11.614 6.556zm76.286-7.913l-1.323 45.985 205.882 6.112 1.378-45.941zm224.005 2.877l-.708 23.607c31.878-1.449 73.479-1.616 119.138-.247 50.606 1.518 96.282 4.656 129.061 8.54 8.319.957 15.717 1.957 22.194 3-6.528.653-13.973 1.208-22.265 1.737-33.021 1.839-78.803 2.235-129.409.717-45.659-1.369-87.175-4.03-118.909-7.387l-.708 23.607c42.286 10.04 81.614 29.047 118.415 45.078 39.731 17.392 77.006 31.739 112.827 23.829l.356-.06.356-.06c50.687-15.316 79.222-49.195 80.662-85.443.077-.21.086-.493.094-.775s.017-.565-.047-.78c.734-36.269-25.719-71.797-75.328-90.051-28.9-10.559-66.064 2.051-108.672 16.902-39.533 13.741-83.678 30.315-127.055 37.786zm69.441.951c22.212-7.045 43.597-14.822 63.471-21.724 42.321-14.718 77.897-23.909 96.507-16.984 6.996 2.615 13.349 5.423 19.124 8.638-17.272 9.81-48.522 18.635-90.628 23.81-25.632 3.122-55.264 5.204-88.474 6.26zm-4.639 55.606c34.218 3.078 64.803 6.966 90.904 11.782 41.788 7.762 72.453 18.444 89.106 29.272-5.885 2.795-12.326 5.29-19.321 7.344-28.479 6.079-62.434-5.763-101.54-22.783l-59.15-25.615zm122.408-47.971c34.84-5.888 61.053-14.227 77.776-26.955 14.649 11.617 23.293 25.317 26.626 39.212-.561-.158-1.054-.244-1.615-.402-9.904-2.349-23.565-4.456-40.271-6.443-17.696-2.016-38.934-3.856-62.516-5.412zm-1.287 47.642c23.559-.072 44.801-.708 62.586-1.66 16.795-.982 30.558-2.267 40.585-4.018.57-.124 1.067-.18 1.636-.305-4.159 13.67-13.609 26.828-28.928 37.546-15.789-13.702-41.455-23.598-75.88-31.563z"
     id="path2" />
</svg>
