<?xml version="1.0" encoding="UTF-8" standalone="no"?>
<!DOCTYPE svg PUBLIC "-//W3C//DTD SVG 1.1//EN" "http://www.w3.org/Graphics/SVG/1.1/DTD/svg11.dtd">
<!-- <svg version="1.1" xmlns="http://www.w3.org/2000/svg" xmlns:xlink="http://www.w3.org/1999/xlink" preserveAspectRatio="xMidYMid meet" viewBox="344.5639097744361 330.27819548872174 111.73684210526318 91.21804511278197" width="53.87" height="43.61"><defs><path d="M453.3 331.28L453.3 359.85L388.64 418.5L388.64 388.42L453.3 331.28Z" id="aFZf6T5ED"></path><linearGradient id="gradientb2ThqnP5Op" gradientUnits="userSpaceOnUse" x1="420.97" y1="331.28" x2="420.97" y2="418.5"><stop style="stop-color: #06b6d4;stop-opacity: 1" offset="0%"></stop><stop style="stop-color: #67e8f9;stop-opacity: 1" offset="100%"></stop></linearGradient><path d="M410.23 331.28L410.23 359.85L345.56 418.5L345.56 388.42L410.23 331.28Z" id="a9fehgwfM"></path><linearGradient id="gradientk1wNV9Ostb" gradientUnits="userSpaceOnUse" x1="377.89" y1="331.28" x2="377.89" y2="418.5"><stop style="stop-color: #06b6d4;stop-opacity: 1" offset="0%"></stop><stop style="stop-color: #67e8f9;stop-opacity: 1" offset="100%"></stop></linearGradient></defs><g><g><use xlink:href="#aFZf6T5ED" opacity="1" fill="url(#gradientb2ThqnP5Op)"></use></g><g><use xlink:href="#a9fehgwfM" opacity="1" fill="url(#gradientk1wNV9Ostb)"></use></g> -->

<svg xmlns="http://www.w3.org/2000/svg" preserveAspectRatio="xMidYMid meet" viewBox="0 0 512 512" width="51.2" height="51.2"><g class="" style="" transform="translate(0,0)"><g><path d="M151.7 16.73C151.7 16.73 131.1 30.85 129.7 41.91C128.3 53.24 147.3 61.15 145.3 72.39C144 79.82 128.7 87.77 128.7 87.77C128.7 87.77 167.4 84.41 171 69.47C173.9 57.65 151.2 52.86 148 41.12C145.9 33.18 151.7 16.73 151.7 16.73Z" class="" fill="#c9c9c9" fill-opacity="1"></path><path d="M366.1 21.62C366.1 21.62 341.3 35.2 341.2 47.07C341.1 54.31 355.6 55.74 356 62.97C356.5 71.53 340.7 83.65 340.7 83.65C340.7 83.65 374.3 79.84 378.8 66.68C381.5 58.91 369.4 52.87 367.2 44.95C365.1 37.45 366.1 21.62 366.1 21.62Z" class="" fill="#c9c9c9" fill-opacity="1"></path><path d="M259.2 21.88C259.2 21.88 232.3 35.63 234.3 47.33C235.7 55.26 254.9 49.95 256 57.93C257.7 70.94 226.4 83.91 226.4 83.91C226.4 83.91 282.9 82.47 285.2 61.64C286.3 51.76 265.2 53.85 260.3 45.21C256.4 38.44 259.2 21.88 259.2 21.88Z" class="" fill="#c9c9c9" fill-opacity="1"></path><path d="M48 105.6L48 123.6L464 123.6L464 105.6Z" class="selected" fill="#f5a623" fill-opacity="1"></path><path d="M64 142.6C49.52 229.5 80.9 280.7 122.6 310.8C119 286 108.5 261.7 87.54 238.6C127.5 249.1 158.9 287.4 172.9 325.8C175.2 307 175.2 298.3 192.4 281.6C189.3 306.4 203.6 308.1 213.6 305C238.9 297.1 249.2 265.5 224.2 226.1C271.8 248.8 272.5 274.5 280.5 309.8C278.1 276.6 304.8 263.3 324.2 275.8C279.1 298.5 316 318 331.1 322.8C371.1 335.6 401.1 276.5 418.3 231.8C423 251.6 419.1 271.5 411.8 291.3C441.4 260 459.7 213 448 142.6Z" class="" fill="#e49712" fill-opacity="1"></path><path d="M248.3 317.8L75 417.5C77.7 435.9 84 451.9 93.8 466L185.8 421.9L107.1 481.8C110.5 485.2 114.2 488.4 118.1 491.5L192.8 448.6C192.8 447.9 192.7 447.1 192.7 446.4C192.7 409.2 223.2 378.8 260.5 378.8C271.1 378.8 281.1 381.2 290 385.5C287.6 372.1 282.7 358.4 275.2 346.3L180.3 386.4L262.8 329.9C258.4 325.4 253.6 321.3 248.3 317.8Z" class="" fill="#b57204" fill-opacity="1"></path><path d="M307.2 375.4C308.8 382.6 309.8 389.8 310.2 396.8L310.4 400.7C321.5 412.7 328.3 428.8 328.3 446.4C328.3 454.2 327 461.7 324.5 468.6L415.9 493C420.5 486.7 424.5 480.2 427.7 473.6L364.6 448.9L434.7 455.8C435.6 452.8 436.3 449.9 436.9 446.9L339.8 412.6L439 428.1C439.2 422.3 438.9 416.4 438.2 410.4Z" class="" fill="#b57204" fill-opacity="1"></path><path d="M260.5 397.5C233.3 397.5 211.4 419.3 211.4 446.4C211.4 473.5 233.3 495.3 260.5 495.3C287.8 495.3 309.7 473.5 309.7 446.4C309.7 419.3 287.8 397.5 260.5 397.5Z" class="" fill="#b57204" fill-opacity="1"></path><path d="M255.6 409.3C299.4 409.3 314 480.9 255.6 480.9C282.2 457.8 285.4 434 255.6 409.3Z" class="" fill="#ffe0af" fill-opacity="1"></path><path d="M255.8 419.1C234.2 437 236.5 454.3 255.8 471.1C213.4 471.1 224 419.1 255.8 419.1Z" class="" fill="#ffe0af" fill-opacity="1"></path></g></g></svg>